# xmcd CD database file
# 
# Track frame offsets:
# 	150
# 	15187
# 	30021
# 	40888
# 	53375
# 	77487
# 	86239
# 	94991
# 	102543
# 	117227
# 
# Disc length: 1676 seconds
# 
# Submitted via: Nero 5.5.3.5
# 
# Revision: 0
# Processed by: cddbd v1.4PL0 Copyright (c) Steve Scherf et al.
#
DISCID=66068a0a
DTITLE=Lonnie Donegan - My Old Man's A Dustman
DYEAR=1900
DGENRE=
TTITLE0=My Old Man's A Dustman
TTITLE1=Gamblin' Man
TTITLE2=Michael, Row The Boat
TTITLE3=Have A Drink On Me
TTITLE4=Frankie And Johnny
TTITLE5=Cumberland Gap
TTITLE6=Wabash Cannonball
TTITLE7=Don't You Rock Me Daddy-O
TTITLE8=Tom Dooley
TTITLE9=San Miguel
EXTD=
EXTT0=
EXTT1=
EXTT2=
EXTT3=
EXTT4=
EXTT5=
EXTT6=
EXTT7=
EXTT8=
EXTT9=
PLAYORDER=
